<svg width="25" height="25" viewBox="0 0 25 25" fill="none" xmlns="http://www.w3.org/2000/svg">
<path d="M8.32386 3.50003C8.77863 3.50003 9.1473 3.83582 9.1473 4.25003V4.50348C9.55741 4.50002 9.99442 4.50002 10.4595 4.50003H13.8737C14.3387 4.50002 14.7758 4.50002 15.1859 4.50348V4.25003C15.1859 3.83582 15.5546 3.50003 16.0093 3.50003C16.4641 3.50003 16.8328 3.83582 16.8328 4.25003V4.5528C17.0819 4.56875 17.3166 4.58951 17.5374 4.61656C18.5257 4.73757 19.3578 4.99647 20.0186 5.59838C20.6795 6.2003 20.9637 6.95817 21.0966 7.85828C21.1263 8.05941 21.1491 8.2732 21.1666 8.50003H3.16663C3.18413 8.2732 3.20693 8.05941 3.23662 7.85828C3.36949 6.95817 3.65373 6.2003 4.3146 5.59838C4.97546 4.99647 5.80755 4.73757 6.79581 4.61656C7.01663 4.58951 7.25135 4.56875 7.50041 4.5528V4.25003C7.50041 3.83582 7.86907 3.50003 8.32386 3.50003Z" stroke="#A7A7A7"/>
<path fill-rule="evenodd" clip-rule="evenodd" d="M3.16663 11.8144C3.16662 11.3487 3.16662 10.9109 3.17038 10.5H21.1629C21.1666 10.9108 21.1666 11.3486 21.1666 11.8143V15.2144C21.1666 16.209 21.1667 17.0113 21.1085 17.6584C21.0486 18.3254 20.9217 18.9082 20.6186 19.4375C20.2595 20.0646 19.7431 20.5854 19.1212 20.9474C18.5962 21.253 18.0183 21.3809 17.3567 21.4414C16.7151 21.5 15.9195 21.5 14.933 21.5H10.4705C8.97856 21.5 7.77593 21.5 6.83018 21.3719C5.84824 21.2388 5.02146 20.954 4.36483 20.2919C3.70819 19.6297 3.42576 18.7961 3.29374 17.806C3.16658 16.8523 3.16661 15.6398 3.16663 14.1354V11.8144ZM6.76001 16.4707C6.76001 16.015 7.12632 15.6457 7.5782 15.6457H13.403C13.8549 15.6457 14.2212 16.015 14.2212 16.4707C14.2212 16.9263 13.8549 17.2957 13.403 17.2957H7.5782C7.12632 17.2957 6.76001 16.9263 6.76001 16.4707ZM7.5782 12.521C7.12632 12.521 6.76001 12.8902 6.76001 13.346C6.76001 13.8016 7.12632 14.171 7.5782 14.171H10.851C11.3028 14.171 11.6691 13.8016 11.6691 13.346C11.6691 12.8902 11.3028 12.521 10.851 12.521H7.5782Z" stroke="#A7A7A7"/>
</svg>
