<svg width="25" height="25" viewBox="0 0 25 25" fill="none" xmlns="http://www.w3.org/2000/svg">
<g clip-path="url(#clip0_0_212)">
<path d="M18.2365 6.75225C16.7656 5.28417 14.7367 4.375 12.5 4.375C8.02096 4.375 4.375 8.02096 4.375 12.5C4.375 14.7367 5.28417 16.7656 6.75225 18.2365L6.7425 18.2575L6.76348 18.2478C8.2344 19.7158 10.2633 20.625 12.5 20.625C16.979 20.625 20.625 16.979 20.625 12.5C20.625 10.2633 19.7158 8.2344 18.2478 6.76348L18.2575 6.7425L18.2365 6.75225ZM2.625 12.5C2.625 7.04904 7.04904 2.625 12.5 2.625C17.951 2.625 22.375 7.04904 22.375 12.5C22.375 17.951 17.951 22.375 12.5 22.375C7.04904 22.375 2.625 17.951 2.625 12.5ZM14.4159 14.4159L7.2575 17.7425L10.5841 10.5841L17.7425 7.2575L14.4159 14.4159ZM13.725 12.5C13.725 11.821 13.179 11.275 12.5 11.275C11.821 11.275 11.275 11.821 11.275 12.5C11.275 13.179 11.821 13.725 12.5 13.725C13.179 13.725 13.725 13.179 13.725 12.5Z" fill="#A7A7A7" stroke="#2F2F2F" stroke-width="0.25"/>
</g>
<defs>
<clipPath id="clip0_0_212">
<rect width="24" height="24" fill="white" transform="translate(0.5 0.5)"/>
</clipPath>
</defs>
</svg>
