<svg width="24" height="25" viewBox="0 0 24 25" fill="none" xmlns="http://www.w3.org/2000/svg">
<g clip-path="url(#clip0_0_194)">
<path d="M9.99633 14.7625L9.18198 15.682C8.55264 16.3113 7.75082 16.7399 6.87791 16.9135C6.00499 17.0872 5.10019 16.9981 4.27792 16.6575C3.45566 16.3169 2.75285 15.7401 2.25839 15.0001C1.76392 14.26 1.5 13.39 1.5 12.5C1.5 11.61 1.76392 10.74 2.25839 9.99994C2.75285 9.25991 3.45566 8.68314 4.27792 8.34254C5.10019 8.00195 6.00499 7.91283 6.87791 8.08647C7.75082 8.2601 8.55264 8.68868 9.18198 9.31802L14.818 15.682C15.4474 16.3113 16.2492 16.7399 17.1221 16.9135C17.995 17.0872 18.8998 16.9981 19.7221 16.6575C20.5443 16.3169 21.2471 15.7401 21.7416 15.0001C22.2361 14.26 22.5 13.39 22.5 12.5C22.5 11.61 22.2361 10.74 21.7416 9.99994C21.2471 9.25991 20.5443 8.68314 19.7221 8.34254C18.8998 8.00195 17.995 7.91283 17.1221 8.08647C16.2492 8.2601 15.4474 8.68868 14.818 9.31802L14.0037 10.2375" fill="#FFC491"/>
</g>
<defs>
<clipPath id="clip0_0_194">
<rect width="24" height="24" fill="white" transform="translate(0 0.5)"/>
</clipPath>
</defs>
</svg>
